<?xml version="1.0" encoding="UTF-8"?>
<svg width="1000px" height="1000px" viewBox="0 0 1000 1000" version="1.1" xmlns="http://www.w3.org/2000/svg" xmlns:xlink="http://www.w3.org/1999/xlink">
    <title>mapa</title>
    <defs>
        <linearGradient x1="50%" y1="0%" x2="50%" y2="100%" id="linearGradient-1">
            <stop stop-color="#FFB337" offset="0%"></stop>
            <stop stop-color="#FF701A" offset="100%"></stop>
        </linearGradient>
    </defs>
    <g id="mapa" stroke="none" stroke-width="1" fill="none" fill-rule="evenodd">
        <rect fill="#669999" x="0" y="0" width="1000" height="1000"></rect>
        <g id="map-lines" transform="translate(-5.369173, 36.994511)" stroke="#6C350D">
            <path d="M0.369173285,330.288646 L105.990088,343.499488 C108.924003,358.178203 121.393138,369.187239 143.397496,376.526596 C165.401853,383.865953 202.075782,377.994467 253.419282,358.912139 C290.093211,354.508524 314.298004,344.96736 326.033661,330.288646 C337.769319,315.609931 370.775854,315.609931 425.053269,330.288646 C458.793284,308.270574 480.797641,290.656117 491.066341,277.445274 C501.335041,264.234431 506.469391,248.821781 506.469391,231.207324 C524.072877,220.932224 532.87462,208.455317 532.87462,193.776603 C532.87462,171.758531 515.271134,143.135038 532.87462,103.50251 C550.478106,63.8699812 741.916014,6.62299548 757.319064,6.62299548 C767.587764,6.62299548 780.790379,8.82480263 796.926907,13.2284169 C833.227502,-1.82306447 857.432295,-4.02487161 869.541287,6.62299548 C887.704774,22.5947961 876.142594,63.8699812 858.539108,90.2916669 C840.935622,116.713353 832.133879,101.300703 825.532572,136.529617 C821.131701,160.01556 818.931265,183.501503 818.931265,206.987446 L812.329958,231.207324 L825.532572,246.619974 C821.131701,299.463346 815.263872,327.352903 807.929086,330.288646 C796.926907,334.69226 785.924729,310.472381 785.924729,297.261538 C785.924729,284.050696 770.521679,297.261538 766.120807,314.875996 C761.719936,332.490453 777.122986,343.499488 772.722114,418.360931 C768.321243,493.222374 779.41129,475.699795 766.120807,513.038639 C752.830324,550.377482 715.510785,561.478396 715.510785,579.092853 C715.510785,596.70731 744.11645,609.918153 757.319064,592.303696 C770.521679,574.689239 777.08848,604.015918 796.926907,601.110924 C816.765335,598.20593 843.136058,572.487431 869.541287,585.698274 C887.144772,594.505503 934.087401,588.634017 1010.36917,568.083817 L1010.36917,960.005489 C935.823909,912.270178 896.216065,885.848493 891.545644,880.740432 C884.540012,873.07834 901.865477,865.128426 900.347387,856.520553 C898.829297,847.91268 895.946515,843.30971 880.543465,843.30971 C865.140415,843.30971 865.140415,856.520553 772.722114,852.116939 C680.303814,847.713324 589.302619,798.741998 565.881156,794.869953 C542.459693,790.997908 535.075056,814.686217 506.469391,805.878989 C477.863727,797.07176 425.053269,779.457303 400.848476,753.035617 C361.240633,706.797667 203.681067,599.033308 194.007518,592.303696 C184.333968,585.574084 178.604467,594.505503 163.201417,592.303696 C147.798367,590.101889 141.19706,581.29466 116.992267,581.29466 C103.789653,594.505503 64.915288,614.321767 0.369173285,640.743453 L0.369173285,330.288646 Z" id="Path" stroke-width="3" fill="url(#linearGradient-1)"></path>
            <path d="M391.369173,742.005489 C391.369173,728.829609 397.98682,712.725757 411.222114,693.693931 C404.604467,665.146192 382.545644,658.558253 415.633879,612.442675 C448.722114,566.327097 556.81035,614.638655 556.81035,572.915037 C550.192703,518.015539 470.780938,493.85976 470.780938,474.095941 C467.961755,469.886149 473.108813,467.69017 486.222114,467.508001 C475.927997,442.620229 480.339762,422.85641 499.457409,408.216544 C528.133879,386.256745 622.022621,403.961709 653.869173,399.432624 C667.142036,397.545013 670.912137,384.608772 680.339762,381.864785 C693.532527,378.024924 710.487781,383.876572 715.633879,377.472825 C719.742052,372.360662 721.282727,348.500745 733.280938,326.965288 C736.73535,320.765002 747.764762,313.445069 766.369173,305.005489" id="Path-2" stroke-width="2"></path>
            <path d="M716.369173,590.587266 C690.145499,594.999514 674.11992,589.116517 668.292437,572.938274 C659.551212,548.670911 683.299093,496.666941 685.774887,460.425952 C677.033662,438.364712 675.576791,411.891224 681.404274,381.005489" id="Path-3" stroke-width="2"></path>
            <path d="M787.189133,601.005489 C750.436733,634.738822 723.975004,658.205489 707.803948,671.405489 C683.547364,691.205489 714.41938,713.205489 694.573084,728.605489 C690.162796,728.605489 758.522261,772.605489 780.573701,779.205489 C802.625141,785.805489 842.317733,779.205489 853.343453,790.205489 C860.693933,797.538822 864.369173,815.138822 864.369173,843.005489" id="Path-4" stroke-width="2"></path>
            <path d="M622.369173,812.005489 C638.540113,794.505489 648.830712,783.567989 653.240968,779.192989 C659.856353,772.630489 653.240968,759.505489 670.881994,750.755489 C682.642678,744.922155 695.138404,742.005489 708.369173,742.005489" id="Path-5" stroke-width="2"></path>
        </g>
        <rect id="Rectangle" stroke="#6C350D" stroke-width="4" x="2" y="2" width="996" height="996"></rect>
        <g id="Location-stars" transform="translate(349.121777, 114.069847)" fill="#6C350D">
            <polygon id="Star" points="14.3782231 359.180153 5.26755171 363.969917 7.00753512 353.825035 -0.363152886 346.64039 9.82288741 345.160272 14.3782231 335.930153 18.9335588 345.160272 29.1195991 346.64039 21.7489111 353.825035 23.4888945 363.969917"></polygon>
            <polygon id="Star" points="381.378223 23.1801535 372.267552 27.9699169 374.007535 17.8250352 366.636847 10.6403901 376.822887 9.16027179 381.378223 -0.0698465046 385.933559 9.16027179 396.119599 10.6403901 388.748911 17.8250352 390.488895 27.9699169"></polygon>
            <polygon id="Star" points="350.378223 459.180153 341.267552 463.969917 343.007535 453.825035 335.636847 446.64039 345.822887 445.160272 350.378223 435.930153 354.933559 445.160272 365.119599 446.64039 357.748911 453.825035 359.488895 463.969917"></polygon>
            <polygon id="Star" points="365.378223 631.180153 356.267552 635.969917 358.007535 625.825035 350.636847 618.64039 360.822887 617.160272 365.378223 607.930153 369.933559 617.160272 380.119599 618.64039 372.748911 625.825035 374.488895 635.969917"></polygon>
            <polygon id="Star" points="281.378223 414.180153 272.267552 418.969917 274.007535 408.825035 266.636847 401.64039 276.822887 400.160272 281.378223 390.930153 285.933559 400.160272 296.119599 401.64039 288.748911 408.825035 290.488895 418.969917"></polygon>
        </g>
        <g id="countries" transform="translate(73.000000, 180.000000)" fill="#6C350D" font-family="Sanchez-Regular, Sanchez" font-size="48" font-weight="normal" letter-spacing="1.33333333">
            <text id="Belize">
                <tspan x="657.456" y="313">Belize</tspan>
            </text>
            <text id="Honduras">
                <tspan x="681.018667" y="619">Honduras</tspan>
            </text>
            <text id="El-Salvador">
                <tspan x="398.474667" y="701">El Salvador</tspan>
            </text>
            <text id="Nicaragua">
                <tspan x="644.436" y="770">Nicaragua</tspan>
            </text>
            <text id="Gulf-of-Mexico">
                <tspan x="134.609333" y="48">Gulf of </tspan>
                <tspan x="133.572" y="109">Mexico</tspan>
            </text>
            <text id="Mexico">
                <tspan x="8.072" y="352">Mexico</tspan>
            </text>
            <text id="Guatemala">
                <tspan x="374.204" y="493">Guatemala</tspan>
            </text>
        </g>
        <g id="sitios" transform="translate(214.000000, 115.000000)" fill="#6C350D" font-family="Sanchez-Regular, Sanchez" font-size="24" font-weight="normal" letter-spacing="0.666666667">
            <text id="Palenque">
                <tspan x="16.1013333" y="357">Palenque</tspan>
            </text>
            <text id="Tikal">
                <tspan x="332.733333" y="413">Tikal</tspan>
            </text>
            <text id="Chichen-Itz치">
                <tspan x="537.196" y="24">Chichen Itz치</tspan>
            </text>
            <text id="Caracol">
                <tspan x="506.506667" y="459">Caracol</tspan>
            </text>
            <text id="Cop치n">
                <tspan x="521.349333" y="631">Cop치n</tspan>
            </text>
        </g>
    </g>
</svg>