<?xml version="1.0" encoding="UTF-8"?>
<svg width="300px" height="200px" viewBox="0 0 300 200" version="1.1" xmlns="http://www.w3.org/2000/svg" xmlns:xlink="http://www.w3.org/1999/xlink">
    <title>Artboard</title>
    <g id="Artboard" stroke="none" stroke-width="1" fill="none" fill-rule="evenodd">
        <g id="nineteen" transform="translate(23.000000, 45.000000)" fill="#FFFF99">
            <g id="five" transform="translate(0.000000, 41.000000)">
                <rect x="0" y="0" width="254" height="16" rx="8"></rect>
            </g>
            <g id="five" transform="translate(0.000000, 67.000000)">
                <rect x="0" y="0" width="254" height="16" rx="8"></rect>
            </g>
            <g id="five" transform="translate(0.000000, 93.000000)">
                <rect x="0" y="0" width="254" height="16" rx="8"></rect>
            </g>
            <g id="one" transform="translate(9.000000, 0.000000)">
                <circle cx="15.5" cy="15.5" r="15.5"></circle>
            </g>
            <g id="one" transform="translate(77.000000, 0.000000)">
                <circle cx="15.5" cy="15.5" r="15.5"></circle>
            </g>
            <g id="one" transform="translate(145.000000, 0.000000)">
                <circle cx="15.5" cy="15.5" r="15.5"></circle>
            </g>
            <g id="one" transform="translate(213.000000, 0.000000)">
                <circle cx="15.5" cy="15.5" r="15.5"></circle>
            </g>
        </g>
        <g id="eightteen" transform="translate(23.000000, 45.000000)" fill="#FFFF99">
            <g id="five" transform="translate(0.000000, 41.000000)">
                <rect x="0" y="0" width="254" height="16" rx="8"></rect>
            </g>
            <g id="five" transform="translate(0.000000, 93.000000)">
                <rect x="0" y="0" width="254" height="16" rx="8"></rect>
            </g>
            <g id="five" transform="translate(0.000000, 67.000000)">
                <rect x="0" y="0" width="254" height="16" rx="8"></rect>
            </g>
            <g id="one" transform="translate(43.000000, 0.000000)">
                <circle cx="15.5" cy="15.5" r="15.5"></circle>
            </g>
            <g id="one" transform="translate(111.000000, 0.000000)">
                <circle cx="15.5" cy="15.5" r="15.5"></circle>
            </g>
            <g id="one" transform="translate(179.000000, 0.000000)">
                <circle cx="15.5" cy="15.5" r="15.5"></circle>
            </g>
        </g>
        <g id="seventeen" transform="translate(23.000000, 45.000000)" fill="#FFFF99">
            <g id="five" transform="translate(0.000000, 41.000000)">
                <rect x="0" y="0" width="254" height="16" rx="8"></rect>
            </g>
            <g id="five" transform="translate(0.000000, 93.000000)">
                <rect x="0" y="0" width="254" height="16" rx="8"></rect>
            </g>
            <g id="five" transform="translate(0.000000, 67.000000)">
                <rect x="0" y="0" width="254" height="16" rx="8"></rect>
            </g>
            <g id="one" transform="translate(77.000000, 0.000000)">
                <circle cx="15.5" cy="15.5" r="15.5"></circle>
            </g>
            <g id="one" transform="translate(145.000000, 0.000000)">
                <circle cx="15.5" cy="15.5" r="15.5"></circle>
            </g>
        </g>
        <g id="sixteen" transform="translate(23.000000, 58.000000)" fill="#FFFF99">
            <g id="five" transform="translate(0.000000, 41.000000)">
                <rect x="0" y="0" width="254" height="16" rx="8"></rect>
            </g>
            <g id="five" transform="translate(0.000000, 67.000000)">
                <rect x="0" y="0" width="254" height="16" rx="8"></rect>
            </g>
            <g id="five" transform="translate(0.000000, 93.000000)">
                <rect x="0" y="0" width="254" height="16" rx="8"></rect>
            </g>
            <g id="one" transform="translate(111.000000, 0.000000)">
                <circle cx="15.5" cy="15.5" r="15.5"></circle>
            </g>
        </g>
        <g id="fifteen" transform="translate(23.000000, 66.000000)" fill="#FFFF99">
            <g id="five" transform="translate(0.000000, 52.000000)">
                <rect x="0" y="0" width="254" height="16" rx="8"></rect>
            </g>
            <g id="five" transform="translate(0.000000, 26.000000)">
                <rect x="0" y="0" width="254" height="16" rx="8"></rect>
            </g>
            <g id="five">
                <rect x="0" y="0" width="254" height="16" rx="8"></rect>
            </g>
        </g>
        <g id="fourteen" transform="translate(23.000000, 58.000000)" fill="#FFFF99">
            <g id="five" transform="translate(0.000000, 41.000000)">
                <rect x="0" y="0" width="254" height="16" rx="8"></rect>
            </g>
            <g id="five" transform="translate(0.000000, 67.000000)">
                <rect x="0" y="0" width="254" height="16" rx="8"></rect>
            </g>
            <g id="one" transform="translate(9.000000, 0.000000)">
                <circle cx="15.5" cy="15.5" r="15.5"></circle>
            </g>
            <g id="one" transform="translate(77.000000, 0.000000)">
                <circle cx="15.5" cy="15.5" r="15.5"></circle>
            </g>
            <g id="one" transform="translate(145.000000, 0.000000)">
                <circle cx="15.5" cy="15.5" r="15.5"></circle>
            </g>
            <g id="one" transform="translate(213.000000, 0.000000)">
                <circle cx="15.5" cy="15.5" r="15.5"></circle>
            </g>
        </g>
        <g id="thirteen" transform="translate(23.000000, 58.000000)" fill="#FFFF99">
            <g id="five" transform="translate(0.000000, 41.000000)">
                <rect x="0" y="0" width="254" height="16" rx="8"></rect>
            </g>
            <g id="five" transform="translate(0.000000, 67.000000)">
                <rect x="0" y="0" width="254" height="16" rx="8"></rect>
            </g>
            <g id="one" transform="translate(43.000000, 0.000000)">
                <circle cx="15.5" cy="15.5" r="15.5"></circle>
            </g>
            <g id="one" transform="translate(111.000000, 0.000000)">
                <circle cx="15.5" cy="15.5" r="15.5"></circle>
            </g>
            <g id="one" transform="translate(179.000000, 0.000000)">
                <circle cx="15.5" cy="15.5" r="15.5"></circle>
            </g>
        </g>
        <g id="twelve" transform="translate(23.000000, 58.000000)" fill="#FFFF99">
            <g id="five" transform="translate(0.000000, 41.000000)">
                <rect x="0" y="0" width="254" height="16" rx="8"></rect>
            </g>
            <g id="five" transform="translate(0.000000, 67.000000)">
                <rect x="0" y="0" width="254" height="16" rx="8"></rect>
            </g>
            <g id="one" transform="translate(77.000000, 0.000000)">
                <circle cx="15.5" cy="15.5" r="15.5"></circle>
            </g>
            <g id="one" transform="translate(145.000000, 0.000000)">
                <circle cx="15.5" cy="15.5" r="15.5"></circle>
            </g>
        </g>
        <g id="eleven" transform="translate(23.000000, 58.000000)" fill="#FFFF99">
            <g id="five" transform="translate(0.000000, 41.000000)">
                <rect x="0" y="0" width="254" height="16" rx="8"></rect>
            </g>
            <g id="five" transform="translate(0.000000, 67.000000)">
                <rect x="0" y="0" width="254" height="16" rx="8"></rect>
            </g>
            <g id="one" transform="translate(111.000000, 0.000000)">
                <circle cx="15.5" cy="15.5" r="15.5"></circle>
            </g>
        </g>
        <g id="ten" transform="translate(23.000000, 79.000000)" fill="#FFFF99">
            <g id="five" transform="translate(0.000000, 26.000000)">
                <rect x="0" y="0" width="254" height="16" rx="8"></rect>
            </g>
            <g id="five">
                <rect x="0" y="0" width="254" height="16" rx="8"></rect>
            </g>
        </g>
        <g id="nine" transform="translate(23.000000, 71.000000)" fill="#FFFF99">
            <g id="five" transform="translate(0.000000, 41.000000)">
                <rect x="0" y="0" width="254" height="16" rx="8"></rect>
            </g>
            <g id="one" transform="translate(9.000000, 0.000000)">
                <circle cx="15.5" cy="15.5" r="15.5"></circle>
            </g>
            <g id="one" transform="translate(77.000000, 0.000000)">
                <circle cx="15.5" cy="15.5" r="15.5"></circle>
            </g>
            <g id="one" transform="translate(145.000000, 0.000000)">
                <circle cx="15.5" cy="15.5" r="15.5"></circle>
            </g>
            <g id="one" transform="translate(213.000000, 0.000000)">
                <circle cx="15.5" cy="15.5" r="15.5"></circle>
            </g>
        </g>
        <g id="eight" transform="translate(23.000000, 71.000000)" fill="#FFFF99">
            <g id="five" transform="translate(0.000000, 41.000000)">
                <rect x="0" y="0" width="254" height="16" rx="8"></rect>
            </g>
            <g id="one" transform="translate(43.000000, 0.000000)">
                <circle cx="15.5" cy="15.5" r="15.5"></circle>
            </g>
            <g id="one" transform="translate(111.000000, 0.000000)">
                <circle cx="15.5" cy="15.5" r="15.5"></circle>
            </g>
            <g id="one" transform="translate(179.000000, 0.000000)">
                <circle cx="15.5" cy="15.5" r="15.5"></circle>
            </g>
        </g>
        <g id="seven" transform="translate(23.000000, 71.000000)" fill="#FFFF99">
            <g id="five" transform="translate(0.000000, 41.000000)">
                <rect x="0" y="0" width="254" height="16" rx="8"></rect>
            </g>
            <g id="one" transform="translate(77.000000, 0.000000)">
                <circle cx="15.5" cy="15.5" r="15.5"></circle>
            </g>
            <g id="one" transform="translate(145.000000, 0.000000)">
                <circle cx="15.5" cy="15.5" r="15.5"></circle>
            </g>
        </g>
        <g id="six" transform="translate(23.000000, 71.000000)" fill="#FFFF99">
            <g id="five" transform="translate(0.000000, 41.000000)">
                <rect x="0" y="0" width="254" height="16" rx="8"></rect>
            </g>
            <g id="one" transform="translate(111.000000, 0.000000)">
                <circle cx="15.5" cy="15.5" r="15.5"></circle>
            </g>
        </g>
        <g id="five" transform="translate(23.000000, 92.000000)" fill="#FFFF99">
            <rect x="0" y="0" width="254" height="16" rx="8"></rect>
        </g>
        <g id="four" transform="translate(31.000000, 84.000000)" fill="#FFFF99">
            <g id="one">
                <circle cx="15.5" cy="15.5" r="15.5"></circle>
            </g>
            <g id="one" transform="translate(136.000000, 0.000000)">
                <circle cx="15.5" cy="15.5" r="15.5"></circle>
            </g>
            <g id="one" transform="translate(204.000000, 0.000000)">
                <circle cx="15.5" cy="15.5" r="15.5"></circle>
            </g>
            <g id="one" transform="translate(68.000000, 0.000000)">
                <circle cx="15.5" cy="15.5" r="15.5"></circle>
            </g>
        </g>
        <g id="three" transform="translate(67.000000, 84.000000)" fill="#FFFF99">
            <g id="one">
                <circle cx="15.5" cy="15.5" r="15.5"></circle>
            </g>
            <g id="one" transform="translate(136.000000, 0.000000)">
                <circle cx="15.5" cy="15.5" r="15.5"></circle>
            </g>
            <g id="one" transform="translate(68.000000, 0.000000)">
                <circle cx="15.5" cy="15.5" r="15.5"></circle>
            </g>
        </g>
        <g id="two" transform="translate(99.000000, 84.000000)" fill="#FFFF99">
            <g id="one">
                <circle cx="15.5" cy="15.5" r="15.5"></circle>
            </g>
            <g id="one" transform="translate(68.000000, 0.000000)">
                <circle cx="15.5" cy="15.5" r="15.5"></circle>
            </g>
        </g>
        <g id="one" transform="translate(134.000000, 84.000000)" fill="#FFFF99">
            <circle cx="15.5" cy="15.5" r="15.5"></circle>
        </g>
        <g id="zero" transform="translate(23.000000, 47.000000)" stroke="#FFFF99" stroke-width="7">
            <ellipse id="Oval" cx="127" cy="53.5" rx="123.5" ry="50"></ellipse>
            <path d="M0,51 C43.066666,60.3333333 85.7333327,65 128,65 C170.266667,65 211.933334,59 253,47" id="Path"></path>
            <path d="M7,69 C45.3999993,78.3333333 85.7333327,83 128,83 C170.266667,83 209.266667,78 245,68" id="Path"></path>
            <line x1="55" y1="15" x2="55" y2="58" id="Path-2"></line>
            <line x1="102" y1="6" x2="102" y2="63" id="Path-3"></line>
            <line x1="139" y1="4" x2="139" y2="63" id="Path-4"></line>
            <line x1="184" y1="12" x2="184" y2="61" id="Path-5"></line>
        </g>
    </g>
</svg>